<svg xmlns="http://www.w3.org/2000/svg" width="19.692" height="15" viewBox="0 0 19.692 15">
  <g id="Group_36" data-name="Group 36" transform="translate(-695 -1041.874)">
    <path id="Path_83" data-name="Path 83" d="M42.693,61H26.463a1.711,1.711,0,0,0-.742.173l8.818,8.818,1.976-1.9h0l6.919-6.918A1.711,1.711,0,0,0,42.693,61Z" transform="translate(670.268 980.874)" fill="#0080b8"/>
    <path id="Path_84" data-name="Path 84" d="M344.724,86.728l-6.511,6.511,6.511,6.511a1.71,1.71,0,0,0,.173-.741V87.469A1.711,1.711,0,0,0,344.724,86.728Z" transform="translate(369.795 956.135)" fill="#0080b8"/>
    <path id="Path_85" data-name="Path 85" d="M.173,86.721A1.711,1.711,0,0,0,0,87.463V99a1.711,1.711,0,0,0,.173.741l6.511-6.511Z" transform="translate(695 956.142)" fill="#0080b8"/>
    <path id="Path_86" data-name="Path 86" d="M36.917,277.211l-1.977,1.9a.577.577,0,0,1-.816,0l-1.9-1.9-6.511,6.511a1.711,1.711,0,0,0,.742.174H42.687a1.711,1.711,0,0,0,.741-.173Z" transform="translate(670.275 772.979)" fill="#0080b8"/>
  </g>
</svg>
